<svg xmlns="http://www.w3.org/2000/svg" version="1.1" xmlns:xlink="http://www.w3.org/1999/xlink"
     xmlns:svgjs="http://svgjs.dev/svgjs" width="1500" height="1518" viewBox="0 0 1500 1518">
    <g transform="matrix(1,0,0,1,1.325901639344238,0.6145748987853494)">
        <svg viewBox="0 0 244 247" data-background-color="#ffffff" preserveAspectRatio="xMidYMid meet" height="1518"
             width="1500" xmlns="http://www.w3.org/2000/svg" xmlns:xlink="http://www.w3.org/1999/xlink">
            <g id="tight-bounds" transform="matrix(1,0,0,1,-0.21567999999999188,-0.09999999999999432)">
                <svg viewBox="0 0 244.43135999999998 247.2" height="247.2" width="244.43135999999998">
                    <g>
                        <svg></svg>
                    </g>
                    <g>
                        <svg viewBox="0 0 244.43135999999998 247.2" height="247.2" width="244.43135999999998">
                            <g transform="matrix(1,0,0,1,0,72.69482591150444)">
                                <svg viewBox="0 0 244.43135999999998 101.81034817699113" height="101.81034817699113"
                                     width="244.43135999999998">
                                    <g>
                                        <svg viewBox="0 0 244.43135999999998 101.81034817699113"
                                             height="101.81034817699113" width="244.43135999999998">
                                            <g>
                                                <svg viewBox="0 0 244.43135999999998 101.81034817699113"
                                                     height="101.81034817699113" width="244.43135999999998">
                                                    <g>
                                                        <svg viewBox="0 0 244.43135999999998 101.81034817699113"
                                                             height="101.81034817699113" width="244.43135999999998">
                                                            <g id="textblocktransform">
                                                                <svg viewBox="0 0 244.43135999999998 101.81034817699113"
                                                                     height="101.81034817699113"
                                                                     width="244.43135999999998" id="textblock">
                                                                    <g>
                                                                        <svg viewBox="0 0 244.43135999999998 101.81034817699113"
                                                                             height="101.81034817699113"
                                                                             width="244.43135999999998">
                                                                            <g transform="matrix(1,0,0,1,0,0)">
                                                                                <svg width="244.43135999999998"
                                                                                     viewBox="1.6 -34.9 84.75 35.3"
                                                                                     height="101.81034817699113"
                                                                                     data-palette-color="#000000">
                                                                                    <path d="M17-29.05L17-29.05Q15.3-29.5 13.45-29.5 11.6-29.5 10.48-28.58 9.35-27.65 9.35-25.98 9.35-24.3 10.2-23.35 11.05-22.4 13.55-21.7L13.55-21.7 18-20.4Q21.6-19.35 23.73-17.13 25.85-14.9 25.85-10.6L25.85-10.6Q25.85-5.5 22.18-2.55 18.5 0.4 13.05 0.4L13.05 0.4Q10.05 0.4 6.88-0.38 3.7-1.15 1.6-2.55L1.6-2.55Q1.6-2.85 1.6-3.7 1.6-4.55 1.95-6.6 2.3-8.65 2.95-9.95L2.95-9.95 7.7-9.95Q8.5-8.4 8.65-5.8L8.65-5.8Q10.4-5.05 12.73-5.05 15.05-5.05 16.55-6.15 18.05-7.25 18.05-9.3L18.05-9.3Q18.05-10.25 17.9-10.88 17.75-11.5 16.98-12.23 16.2-12.95 14.75-13.4L14.75-13.4 9.6-14.9Q1.75-17.15 1.75-24.9L1.75-24.9Q1.75-29.45 5.05-32.18 8.35-34.9 13.68-34.9 19-34.9 24.1-32.5L24.1-32.5Q24.1-32.2 24.1-31.35 24.1-30.5 23.75-28.45 23.4-26.4 22.75-25.1L22.75-25.1 18-25.1Q17.15-26.3 17-29.05ZM40.7-12L40.7-12 38.45-12 38.45-6.1Q42.1-5.3 43-4.15L43-4.15 42.5 0 29 0 28.5-4.15Q29.15-5 31.25-5.8L31.25-5.8 31.25-28.65Q29.2-29.4 28.5-30.35L28.5-30.35 29-34.5 42.25-34.5Q49.2-34.4 52.62-31.98 56.05-29.55 56.05-23.35L56.05-23.35Q56.05-12 40.7-12ZM41.45-29.05L41.45-29.05 38.45-29.05 38.45-17.45 41.8-17.45Q45.2-17.45 46.87-18.8 48.55-20.15 48.55-23.48 48.55-26.8 46.72-27.93 44.9-29.05 41.45-29.05ZM71-12L71-12 68.75-12 68.75-6.1Q72.4-5.3 73.3-4.15L73.3-4.15 72.8 0 59.3 0 58.8-4.15Q59.45-5 61.55-5.8L61.55-5.8 61.55-28.65Q59.5-29.4 58.8-30.35L58.8-30.35 59.3-34.5 72.55-34.5Q79.5-34.4 82.92-31.98 86.35-29.55 86.35-23.35L86.35-23.35Q86.35-12 71-12ZM71.75-29.05L71.75-29.05 68.75-29.05 68.75-17.45 72.1-17.45Q75.5-17.45 77.17-18.8 78.85-20.15 78.85-23.48 78.85-26.8 77.02-27.93 75.2-29.05 71.75-29.05Z"
                                                                                          opacity="1"
                                                                                          transform="matrix(1,0,0,1,0,0)"
                                                                                          fill="#000000"
                                                                                          class="wordmark-text-0"
                                                                                          data-fill-palette-color="primary"
                                                                                          id="text-0"></path>
                                                                                </svg>
                                                                            </g>
                                                                        </svg>
                                                                    </g>
                                                                </svg>
                                                            </g>
                                                        </svg>
                                                    </g>
                                                    <g></g>
                                                </svg>
                                            </g>
                                        </svg>
                                    </g>
                                </svg>
                            </g>
                            <path d="M0 66.695L0 1 244.431 1 244.431 66.695 235.25 66.695 235.25 10.181 9.181 10.181 9.181 66.695 0 66.695M0 180.505L0 246.2 244.431 246.2 244.431 180.505 235.25 180.505 235.25 237.019 9.181 237.019 9.181 180.505 0 180.505"
                                  fill="#000000" stroke="transparent" data-fill-palette-color="tertiary"></path>
                        </svg>
                    </g>
                    <defs></defs>
                </svg>
                <rect width="244.43135999999998" height="247.2" fill="none" stroke="none" visibility="hidden"></rect>
            </g>
        </svg>
    </g>
</svg>